<?xml version="1.0" encoding="UTF-8" standalone="no"?>
<!DOCTYPE svg PUBLIC "-//W3C//DTD SVG 1.1//EN" "http://www.w3.org/Graphics/SVG/1.1/DTD/svg11.dtd">

<svg version="1.1" xmlns="http://www.w3.org/2000/svg" xmlns:xlink="http://www.w3.org/1999/xlink" preserveAspectRatio="xMidYMid meet" viewBox="0 0 500 650" width='200px' height='260px' id='aaa'><defs><path d="M488.74 0.02L488.94 0.04L489.14 0.07L489.35 0.11L489.56 0.15L489.79 0.2L490.01 0.26L490.25 0.33L490.48 0.4L490.73 0.48L490.97 0.57L491.22 0.66L491.47 0.76L491.73 0.87L491.99 0.98L492.24 1.09L492.5 1.21L492.77 1.34L493.03 1.47L493.29 1.6L493.55 1.74L493.81 1.88L494.07 2.03L494.33 2.17L494.58 2.33L494.83 2.48L495.08 2.64L495.33 2.8L495.57 2.97L495.81 3.13L496.04 3.3L496.27 3.47L496.49 3.64L496.71 3.81L496.92 3.99L497.12 4.16L497.31 4.34L497.5 4.51L497.68 4.69L497.85 4.86L498.01 5.04L498.16 5.22L498.31 5.39L498.45 5.57L498.58 5.75L498.7 5.93L498.81 6.11L498.92 6.3L499.02 6.48L499.12 6.67L499.21 6.86L499.29 7.05L499.36 7.25L499.44 7.45L499.5 7.65L499.56 7.86L499.62 8.07L499.67 8.28L499.71 8.5L499.75 8.72L499.79 8.95L499.83 9.18L499.85 9.41L499.88 9.66L499.9 9.9L499.92 10.16L499.94 10.42L499.96 10.68L499.97 10.95L499.98 11.23L499.99 11.52L499.99 11.81L500 12.11L500 12.41L500 12.73L500 13.05L500 13.38L500 13.72L500 14.07L430.24 630.62L430.06 630.97L429.87 631.33L429.67 631.68L429.47 632.02L429.26 632.37L429.04 632.72L428.81 633.06L428.58 633.4L428.34 633.73L428.09 634.07L427.84 634.39L427.58 634.72L427.31 635.03L427.04 635.34L426.76 635.65L426.48 635.95L426.19 636.24L425.9 636.53L425.6 636.8L425.29 637.07L424.99 637.33L424.68 637.58L424.36 637.82L424.04 638.05L423.72 638.27L423.39 638.48L423.06 638.68L422.73 638.86L422.4 639.03L422.06 639.19L421.72 639.34L421.38 639.47L421.04 639.59L420.69 639.7L420.35 639.79L420 639.86L419.65 639.92L419.31 639.97L418.96 639.99L418.61 640L81.4 640L80.88 639.99L80.37 639.97L79.87 639.92L79.38 639.86L78.9 639.79L78.42 639.7L77.96 639.59L77.51 639.47L77.07 639.34L76.64 639.19L76.22 639.03L75.81 638.86L75.41 638.68L75.03 638.48L74.65 638.27L74.29 638.05L73.94 637.82L73.61 637.58L73.28 637.33L72.97 637.07L72.67 636.8L72.38 636.53L72.11 636.24L71.85 635.95L71.61 635.65L71.38 635.34L71.17 635.03L70.96 634.72L70.78 634.39L70.61 634.07L70.45 633.73L70.31 633.4L70.19 633.06L70.08 632.72L69.98 632.37L69.91 632.02L69.85 631.68L69.81 631.33L69.78 630.97L69.77 630.62L0 14.07L0 13.89L0 13.7L0 13.5L0.01 13.3L0.01 13.09L0.01 12.87L0.02 12.64L0.02 12.42L0.03 12.18L0.04 11.94L0.05 11.7L0.07 11.45L0.08 11.2L0.1 10.94L0.13 10.69L0.15 10.43L0.18 10.17L0.22 9.9L0.25 9.64L0.29 9.38L0.34 9.11L0.39 8.85L0.45 8.59L0.51 8.33L0.57 8.07L0.64 7.81L0.72 7.56L0.8 7.3L0.89 7.06L0.98 6.81L1.09 6.57L1.19 6.34L1.31 6.11L1.43 5.89L1.56 5.67L1.7 5.46L1.84 5.25L2 5.06L2.16 4.87L2.33 4.69L2.5 4.51L2.68 4.34L2.85 4.16L3.03 3.99L3.21 3.81L3.38 3.64L3.56 3.47L3.74 3.3L3.93 3.13L4.11 2.97L4.3 2.8L4.49 2.64L4.68 2.48L4.87 2.33L5.07 2.17L5.27 2.03L5.47 1.88L5.68 1.74L5.89 1.6L6.11 1.47L6.33 1.34L6.55 1.21L6.78 1.09L7.02 0.98L7.26 0.87L7.5 0.76L7.75 0.66L8.01 0.57L8.27 0.48L8.54 0.4L8.82 0.33L9.1 0.26L9.39 0.2L9.69 0.15L9.99 0.11L10.3 0.07L10.62 0.04L10.95 0.02L11.29 0L11.63 0L20.93 0L90.7 616.56L406.98 616.56L474.42 0L488.38 0L488.55 0L488.74 0.02Z" id="cXfQYgXBe"></path></defs><g><g><use xlink:href="#cXfQYgXBe" opacity="1" fill="#000000" fill-opacity="1"></use><g><use xlink:href="#cXfQYgXBe" opacity="1" fill-opacity="0" stroke="#000000" stroke-width="1" stroke-opacity="0"></use></g></g></g></svg>