<?xml version="1.0" encoding="utf-8"?>
<!-- Generator: Adobe Illustrator 19.1.1, SVG Export Plug-In . SVG Version: 6.00 Build 0)  -->
<svg version="1.1" id="Calque_1" xmlns="http://www.w3.org/2000/svg" xmlns:xlink="http://www.w3.org/1999/xlink" x="0px" y="0px"
	 viewBox="-283 407.6 27.3 27.3" style="enable-background:new -283 407.6 27.3 27.3;" xml:space="preserve">
<style type="text/css">
	.st0{fill:none;}
</style>
<g>
	<title>background</title>
	<rect id="canvas_background" x="-284" y="406.6" class="st0" width="582" height="402"/>
</g>
<g>
	<title>Layer 1</title>
	<g id="svg_1">
		<g id="svg_2">
			<path id="svg_3" d="M-262.1,434.9h-14.5c-0.3,0-0.5-0.2-0.5-0.4l-3-26.3c0-0.1,0-0.3,0.1-0.4c0.1-0.1,0.2-0.2,0.4-0.2h20.5
				c0.1,0,0.3,0.1,0.4,0.2c0.1,0.1,0.1,0.2,0.1,0.4l-3,26.3C-261.7,434.7-261.9,434.9-262.1,434.9z M-276.2,433.9h13.6l2.9-26.3
				h-19.5C-279.2,407.6-276.2,433.9-276.2,433.9z"/>
		</g>
	</g>
	<g id="svg_15">
	</g>
	<g id="svg_16">
	</g>
	<g id="svg_17">
	</g>
	<g id="svg_18">
	</g>
	<g id="svg_19">
	</g>
	<g id="svg_20">
	</g>
	<g id="svg_21">
	</g>
	<g id="svg_22">
	</g>
	<g id="svg_23">
	</g>
	<g id="svg_24">
	</g>
	<g id="svg_25">
	</g>
	<g id="svg_26">
	</g>
	<g id="svg_27">
	</g>
	<g id="svg_28">
	</g>
	<g id="svg_29">
	</g>
</g>
<path class="st0" d="M-275.7,427.9"/>
<path d="M-279.6,407.6"/>
<path d="M-279.6,407.6"/>
<path d="M-278.8,408.2"/>
</svg>
